<?xml version="1.0" encoding="UTF-8" standalone="no"?>
<!-- Created with Inkscape (http://www.inkscape.org/) -->

<svg
   width="32"
   height="31.999998"
   viewBox="0 0 32 31.999999"
   version="1.1"
   id="svg1"
   xml:space="preserve"
   xmlns="http://www.w3.org/2000/svg"
   xmlns:svg="http://www.w3.org/2000/svg"><defs
     id="defs1" /><path
     id="path3"
     style="display:inline;fill:#000080;fill-opacity:1;stroke:none;stroke-width:1px;stroke-linecap:butt;stroke-linejoin:miter;stroke-opacity:1"
     d="M 10,5 V 6 H 9 V 7 H 8 V 8 H 7 v 4 h 1 v 1 h 1 v 2 H 8 v 1 H 7 v 6 h 1 v 1 h 1 v 1 h 1 v 1 h 12 v -1 h 1 v -1 h 1 v -1 h 1 v -6 h -1 v -1 h -1 v -2 h 1 v -1 h 1 V 8 H 24 V 7 H 23 V 6 H 22 V 5 Z m 3,3 h 6 v 1 h 1 v 2 h -1 v 1 H 13 V 11 H 12 V 9 h 1 z m -1,9 h 8 v 1 h 1 v 2 h -1 v 1 h -8 v -1 h -1 v -2 h 1 z" /></svg>
