<?xml version="1.0" encoding="UTF-8" standalone="no"?>
<!-- Created with Inkscape (http://www.inkscape.org/) -->

<svg
   width="32"
   height="31.999998"
   viewBox="0 0 32 31.999999"
   version="1.1"
   id="svg1"
   xml:space="preserve"
   xmlns="http://www.w3.org/2000/svg"
   xmlns:svg="http://www.w3.org/2000/svg"><defs
     id="defs1" /><path
     id="path1"
     style="display:inline;fill:#a80057;fill-opacity:1;stroke:none;stroke-width:1px;stroke-linecap:butt;stroke-linejoin:miter;stroke-opacity:1"
     d="M 8,5 C 8,5.3333333 8,5.6666667 8,6 7.6666667,6 7.3333333,6 7,6 c 0,3.3333333 0,6.666667 0,10 0.3333333,0 0.6666667,0 1,0 0,0.333333 0,0.666667 0,1 4,0 8,0 12,0 0,0.333333 0,0.666667 0,1 0.333333,0 0.666667,0 1,0 0,0.666667 0,1.333333 0,2 -0.333333,0 -0.666667,0 -1,0 0,0.333333 0,0.666667 0,1 -4,0 -8,0 -12,0 0,0.333333 0,0.666667 0,1 -0.3333333,0 -0.6666667,0 -1,0 0,0.666667 0,1.333333 0,2 0.3333333,0 0.6666667,0 1,0 0,0.333333 0,0.666667 0,1 4.666667,0 9.333333,0 14,0 0,-0.333333 0,-0.666667 0,-1 0.333333,0 0.666667,0 1,0 0,-0.333333 0,-0.666667 0,-1 0.333333,0 0.666667,0 1,0 0,-0.333333 0,-0.666667 0,-1 0.333333,0 0.666667,0 1,0 0,-2 0,-4 0,-6 -0.333333,0 -0.666667,0 -1,0 0,-0.333333 0,-0.666667 0,-1 -0.333333,0 -0.666667,0 -1,0 0,-0.333333 0,-0.666667 0,-1 -0.333333,0 -0.666667,0 -1,0 0,-0.333333 0,-0.666667 0,-1 -3.333333,0 -6.666667,0 -10,0 0,-1.333333 0,-2.666667 0,-4 4.333333,0 8.666667,0 13,0 C 25,7.6666667 25,6.3333333 25,5 19.333333,5 13.666667,5 8,5 Z" /></svg>
