<?xml version="1.0" encoding="UTF-8" standalone="no"?>
<!-- Created with Inkscape (http://www.inkscape.org/) -->

<svg
   width="32"
   height="31.999998"
   viewBox="0 0 32 31.999999"
   version="1.1"
   id="svg1"
   xml:space="preserve"
   xmlns="http://www.w3.org/2000/svg"
   xmlns:svg="http://www.w3.org/2000/svg"><defs
     id="defs1" /><path
     style="fill:#000000;stroke:none;stroke-width:1px;stroke-linecap:butt;stroke-linejoin:miter;stroke-opacity:1"
     d="M 29,2.9999995 H 27 L 3.0000005,27 v 2 h 2 L 29,4.9999995 Z"
     id="path1-2" /><path
     style="fill:#000000;stroke:none;stroke-width:1px;stroke-linecap:butt;stroke-linejoin:miter;stroke-opacity:1"
     d="m 3,2.9999999 v 2 L 27,28.999999 h 2 v -2 L 5,2.9999999 Z"
     id="path1" /><g
     id="g196"
     style="display:inline"><path
       id="rect194"
       style="fill:#000000;fill-opacity:1;fill-rule:evenodd;stroke:none;stroke-width:8;stroke-linecap:round;paint-order:stroke fill markers"
       d="m 15,5 v 14 h -3 v 2 H 9 v 4 h 3 8 3 V 21 H 20 V 19 H 17 V 5 Z" /><path
       style="fill:#ff0000;fill-opacity:1;stroke:none;stroke-width:1px;stroke-linecap:butt;stroke-linejoin:miter;stroke-opacity:1"
       d="m 17,4.9999998 -3,-4e-7 v 1.0000004 h -1 v 1 l -2,-4e-7 V 7.9999998 H 9 V 8.9999994 H 8 V 10.999999 H 8.9999999 V 12 H 11 v 0.999999 h 2 V 14 h 1 v 0.999999 L 17,15 Z"
       id="path194" /></g></svg>
