<?xml version="1.0" encoding="UTF-8" standalone="no"?>
<!-- Created with Inkscape (http://www.inkscape.org/) -->

<svg
   width="32"
   height="32"
   viewBox="0 0 32 32"
   version="1.1"
   id="svg1"
   xml:space="preserve"
   xmlns="http://www.w3.org/2000/svg"
   xmlns:svg="http://www.w3.org/2000/svg"><defs
     id="defs1" /><g
     id="layer1"
     style="display:none"><rect
       style="display:inline;fill:#b3b3b3;fill-rule:evenodd;stroke:none;stroke-width:8;stroke-linecap:round;paint-order:stroke fill markers"
       id="rect28"
       width="32"
       height="32"
       x="0"
       y="0" /><path
       style="fill:#cccccc;stroke:none;stroke-width:1px;stroke-linecap:butt;stroke-linejoin:miter;stroke-opacity:1"
       d="M 29,3 32,0 V 32 H 0 l 3,-3 h 26 z"
       id="path28" /><path
       style="fill:#f2f2f2;stroke:none;stroke-width:1px;stroke-linecap:butt;stroke-linejoin:miter;stroke-opacity:1"
       d="m 0,32 3,-3 V 3 H 29 L 32,0 H 0 Z"
       id="path29" /></g><path
     id="path191"
     style="display:none;fill:#008000;stroke:none;stroke-width:1px;stroke-linecap:butt;stroke-linejoin:miter;stroke-opacity:1"
     d="M 10,5 V 6 H 9 V 7 H 8 V 8 H 7 v 3 h 5 v -1 h 1 V 9 h 7 v 1 h 1 v 2 h -1 v 1 h -1 -2 v 1 h -3 v 1 h -3 v 1 H 9 v 1 H 8 v 1 H 7 v 4 3 h 3 15 1 V 24 22 21 H 25 13 v -1 h -1 v -1 h 1 v -1 h 4 v -1 h 3 v -1 h 3 v -1 h 1 v -1 h 1 v -1 h 1 V 8 H 25 V 7 H 24 V 6 H 23 V 5 Z" /><path
     style="display:none;fill:#ff0000;stroke:none;stroke-width:1px;stroke-linecap:butt;stroke-linejoin:miter;stroke-opacity:1"
     d="M 7,22 H 8 v -1 h 12 v -1 h 1 v -2 h -1 v -1 H 14 V 16 h -1 v -2 h 1 V 13 L 20,13 v -1 h 1 V 9.9999997 H 20 V 8.9999994 H 8 V 7.9999998 H 7 l 1e-7,-2 H 8 V 5 l 15,4e-7 v 1 h 1 v 16 l 1,4e-7 v 1 h 1 V 13 H 25 V 14 h -1 v 2 h 1 v 1 h 1 v 5 h -1 v 1 h -1 v 1 h -1 v 1 H 8 v -1 H 7 Z"
     id="path189" /><path
     style="display:none;fill:#ff0000;stroke:none;stroke-width:1px;stroke-linecap:butt;stroke-linejoin:miter;stroke-opacity:1"
     d="m 26,22 h -1 v -1 H 13 v -1 h -1 v -2 h 1 v -1 h 6 V 16 h 1 V 14 H 19 V 13 L 13,13 V 12 H 12 V 9.9999997 h 1 V 8.9999994 H 25 V 7.9999998 h 1 v -2 H 25 V 5 l -15.0000001,4e-7 v 1 h -1 v 16 l -1,4e-7 v 1 h -1 v 5 h 1 V 14 h 1 v 2 h -1 v 1 h -1 v 5 h 1 v 1 h 1 v 1 h 1 v 1 H 25 v -1 h 1 z"
     id="path190" /><path
     id="rect132"
     style="display:none;fill:#0000ff;fill-opacity:1;fill-rule:evenodd;stroke:none;stroke-width:8;stroke-linecap:round;paint-order:stroke fill markers"
     d="m 15,5 v -1e-7 h -1 v 1 h -1 v 1 h -1 v 1 h -1 v 1 h -1 v 1 H 9 v 17 h 1 4 v 10 h -4 v 2 H 9 v 2 h 14 v -2 h -1 v -2 H 18 V 7 5 l -2,-6e-7 z" /><g
     id="layer2"
     style="display:inline"><path
       id="rect10"
       style="fill:#1a1a1a;fill-rule:evenodd;stroke-width:8;stroke-linecap:round;paint-order:stroke fill markers"
       d="M 15,3 V 7 H 13 V 8 H 11 V 9 H 10 V 8 H 9 V 7 H 7 v 2 h 1 v 1 h 1 v 1 H 8 v 2 H 7 v 2 H 3 v 2 h 4 v 2 h 1 v 2 h 1 v 1 H 8 v 1 H 7 v 2 h 2 v -1 h 1 v -1 h 1 v 1 h 2 v 1 h 2 v 4 h 2 v -4 h 2 v -1 h 2 v -1 h 1 v 1 h 1 v 1 h 2 v -2 h -1 v -1 h -1 v -1 h 1 v -2 h 1 v -2 h 4 v -2 h -4 v -2 h -1 v -2 h -1 v -1 h 1 V 9 h 1 V 7 H 23 V 8 H 22 V 9 H 21 V 8 H 19 V 7 H 17 V 3 Z" /><path
       id="rect23"
       style="fill:#f9f9f9;fill-rule:evenodd;stroke:none;stroke-width:8;stroke-linecap:round;paint-order:stroke fill markers"
       d="m 12,10 v 1 h -1 v 1 h -1 v 1 h 1 v 1 h 1 v 1 h 1 v -1 h 1 v -1 h 1 v -1 h -1 v -1 h -1 v -1 z" /></g></svg>
