<?xml version="1.0" encoding="UTF-8" standalone="no"?>
<!-- Created with Inkscape (http://www.inkscape.org/) -->

<svg
   width="32"
   height="31.999998"
   viewBox="0 0 32 31.999999"
   version="1.1"
   id="svg1"
   xml:space="preserve"
   xmlns="http://www.w3.org/2000/svg"
   xmlns:svg="http://www.w3.org/2000/svg"><defs
     id="defs1" /><path
     id="rect5"
     style="display:inline;fill:#000080;fill-opacity:1;fill-rule:evenodd;stroke:none;stroke-width:8;stroke-linecap:round;paint-order:stroke fill markers"
     d="m 7,5 c 0,1.3333333 0,2.6666667 0,4 4,0 8,0 12,0 0,0.6666667 0,1.333333 0,2 -0.333333,0 -0.666667,0 -1,0 0,0.666667 0,1.333333 0,2 -0.333333,0 -0.666667,0 -1,0 0,0.666667 0,1.333333 0,2 -0.333333,0 -0.666667,0 -1,0 0,0.666667 0,1.333333 0,2 -0.333333,0 -0.666667,0 -1,0 0,0.666667 0,1.333333 0,2 -0.333333,0 -0.666667,0 -1,0 0,0.666667 0,1.333333 0,2 -0.333333,0 -0.666667,0 -1,0 0,0.666667 0,1.333333 0,2 -0.333333,0 -0.666667,0 -1,0 0,0.666667 0,1.333333 0,2 1.666667,0 3.333333,0 5,0 0,-0.666667 0,-1.333333 0,-2 0.333333,0 0.666667,0 1,0 0,-0.666667 0,-1.333333 0,-2 0.333333,0 0.666667,0 1,0 0,-0.666667 0,-1.333333 0,-2 0.333333,0 0.666667,0 1,0 0,-0.666667 0,-1.333333 0,-2 0.333333,0 0.666667,0 1,0 0,-0.666667 0,-1.333333 0,-2 0.333333,0 0.666667,0 1,0 0,-0.666667 0,-1.333333 0,-2 0.333333,0 0.666667,0 1,0 0,-0.666667 0,-1.333333 0,-2 0.333333,0 0.666667,0 1,0 0,-0.666667 0,-1.3333333 0,-2 0.333333,0 0.666667,0 1,0 C 25,7.6666667 25,6.3333333 25,5 19,5 13,5 7,5 Z" /></svg>
