<?xml version="1.0" encoding="UTF-8" standalone="no"?>
<!-- Created with Inkscape (http://www.inkscape.org/) -->

<svg
   width="32"
   height="31.999998"
   viewBox="0 0 32 31.999999"
   version="1.1"
   id="svg1"
   xml:space="preserve"
   xmlns="http://www.w3.org/2000/svg"
   xmlns:svg="http://www.w3.org/2000/svg"><defs
     id="defs1" /><path
     id="path2"
     style="display:inline;fill:#008000;stroke:none;stroke-width:1px;stroke-linecap:butt;stroke-linejoin:miter;stroke-opacity:1"
     d="m 10,5 c 0,0.3333333 0,0.6666667 0,1 C 9.6666667,6 9.3333333,6 9,6 9,6.3333333 9,6.6666667 9,7 8.6666667,7 8.3333333,7 8,7 8,7.3333333 8,7.6666667 8,8 7.6666667,8 7.3333333,8 7,8 c 0,4.666667 0,9.333333 0,14 0.3333333,0 0.6666667,0 1,0 0,0.333333 0,0.666667 0,1 0.3333333,0 0.6666667,0 1,0 0,0.333333 0,0.666667 0,1 0.3333333,0 0.6666667,0 1,0 0,0.333333 0,0.666667 0,1 4,0 8,0 12,0 0,-0.333333 0,-0.666667 0,-1 0.333333,0 0.666667,0 1,0 0,-0.333333 0,-0.666667 0,-1 0.333333,0 0.666667,0 1,0 0,-0.333333 0,-0.666667 0,-1 0.333333,0 0.666667,0 1,0 0,-2 0,-4 0,-6 -0.333333,0 -0.666667,0 -1,0 0,-0.333333 0,-0.666667 0,-1 -0.333333,0 -0.666667,0 -1,0 0,-0.333333 0,-0.666667 0,-1 -0.333333,0 -0.666667,0 -1,0 0,-0.333333 0,-0.666667 0,-1 -3.333333,0 -6.666667,0 -10,0 0,-0.333333 0,-0.666667 0,-1 -0.333333,0 -0.666667,0 -1,0 0,-0.666667 0,-1.333333 0,-2 0.333333,0 0.666667,0 1,0 0,-0.3333333 0,-0.6666667 0,-1 2.666667,-10e-8 5.333333,-2e-7 8,-3e-7 0,0.3333333 0,0.6666667 0,1 0.333333,0 0.666667,0 1,0 0,0.3333333 0,0.6666673 0,1.0000003 1.333333,0 2.666667,0 4,0 0,-1 0,-2 0,-3 -0.333333,0 -0.666667,0 -1,0 0,-0.3333333 0,-0.6666667 0,-1 -0.333333,0 -0.666667,0 -1,0 0,-0.3333333 0,-0.6666667 0,-1 -0.333333,0 -0.666667,0 -1,0 0,-0.3333333 0,-0.6666667 0,-1 -4,0 -8,0 -12,0 z m 2,11.999999 c 2.666667,0 5.333333,0 8,0 0,0.333333 0,0.666667 0,1 0.333333,0 0.666667,0 1,0 0,0.666667 0,1.333333 0,2 -0.333333,0 -0.666667,0 -1,0 0,0.333333 0,0.666667 0,1 -2.666667,0 -5.333333,0 -8,0 0,-0.333333 0,-0.666667 0,-1 -0.333333,0 -0.666667,0 -1,0 0,-0.666667 0,-1.333333 0,-2 0.333333,0 0.666667,0 1,0 0,-0.333333 0,-0.666667 0,-1 z" /></svg>
