<?xml version="1.0" encoding="UTF-8" standalone="no"?>
<!-- Created with Inkscape (http://www.inkscape.org/) -->

<svg
   width="32"
   height="31.999998"
   viewBox="0 0 32 31.999999"
   version="1.1"
   id="svg1"
   xml:space="preserve"
   xmlns="http://www.w3.org/2000/svg"
   xmlns:svg="http://www.w3.org/2000/svg"><defs
     id="defs1" /><path
     style="display:inline;fill:#ff0000;stroke:none;stroke-width:1px;stroke-linecap:butt;stroke-linejoin:miter;stroke-opacity:1"
     d="M 6.9999999,21.999999 H 8 v -1 h 12 v -1 h 1 v -2 h -1 v -1 H 13 V 16 h -1 v -2 h 1 V 12.999999 L 20,13 v -1 h 1 V 9.9999997 H 20 V 8.9999994 H 8 V 7.9999998 H 6.9999999 l 1e-7,-2 H 8 V 4.9999994 L 22,5 v 1 h 1 V 6.9999996 L 24,7 v 1 h 1 v 4.999999 H 24 V 14 h -1 v 2 h 1 v 0.999999 h 1 v 5 h -1 v 1 h -1 v 1 h -1 v 1 H 8 v -1 H 7 Z"
     id="path189" /></svg>
