<?xml version="1.0" encoding="UTF-8" standalone="no"?>
<!-- Created with Inkscape (http://www.inkscape.org/) -->

<svg
   width="32"
   height="31.999998"
   viewBox="0 0 32 31.999999"
   version="1.1"
   id="svg1"
   xml:space="preserve"
   xmlns="http://www.w3.org/2000/svg"
   xmlns:svg="http://www.w3.org/2000/svg"><defs
     id="defs1" /><path
     id="path191"
     style="display:inline;fill:#008000;stroke:none;stroke-width:1px;stroke-linecap:butt;stroke-linejoin:miter;stroke-opacity:1"
     d="M 10,5 V 6 H 9 V 7 H 8 V 8 H 7 v 3 h 5 v -1 h 1 V 9 h 7 v 1 h 1 v 2 h -1 v 1 h -1 -2 v 1 h -3 v 1 h -3 v 1 H 9 v 1 H 8 v 1 H 7 v 4 3 h 3 l 14,-1e-6 h 1 v -1 -2 -1 H 24 L 13,21 v -1 h -1 v -1 h 1 v -1 h 4 v -1 h 3 v -1 h 2 v -1 h 1 v -1 h 1 v -1 h 1 V 8.0000002 h -1 v -1 h -1 v -1 h -1 v -1 z" /></svg>
